<?xml version="1.0" encoding="utf-8"?>
<svg viewBox="0 0 152 148" version="1.1" xmlns:xlink="http://www.w3.org/1999/xlink" xmlns="http://www.w3.org/2000/svg">
  <defs>
    <path d="M152 0L152 0L152 148L0 148L0 0L152 0Z" id="path_1" />
    <clipPath id="clip_1">
      <use xlink:href="#path_1" clip-rule="evenodd" fill-rule="evenodd" />
    </clipPath>
  </defs>
  <g id="Adobe_Photoshop_CC_icon">
    <path d="M152 0L152 0L152 148L0 148L0 0L152 0Z" id="Adobe_Photoshop_CC_icon" fill="none" stroke="none" />
    <g id="Layer_2_1_" clip-path="url(#clip_1)">
      <path d="M26.9167 0L125.084 0C139.967 0 152 12.0171 152 26.8805L152 121.12C152 135.983 139.967 148 125.084 148L26.9167 148C12.0334 148 0 135.983 0 121.12L0 26.8805C0 12.0171 12.0334 0 26.9167 0L26.9167 0Z" id="Surfaces" fill="#606EA9" stroke="none" />
      <path d="M34.2 103.792L34.2 38.7077C34.2 38.2649 34.3899 38.0119 34.8333 38.0119C35.9099 38.0119 36.9231 38.0119 38.3797 37.9487C39.8997 37.8854 41.4829 37.8854 43.1928 37.8222C44.9027 37.7589 46.7393 37.7589 48.7025 37.6957C50.6657 37.6324 52.5656 37.6324 54.4655 37.6324C59.6586 37.6324 63.965 38.2649 67.5115 39.5932C70.678 40.6684 73.5912 42.4394 75.9977 44.7797C78.0243 46.8037 79.6076 49.2704 80.6208 51.9902C81.5708 54.6467 82.0774 57.3664 82.0774 60.2127C82.0774 65.6522 80.8108 70.143 78.2776 73.685C75.7444 77.2269 72.198 79.8835 68.0815 81.4015C63.7751 82.9827 59.0253 83.5519 53.8322 83.5519C52.3123 83.5519 51.299 83.5519 50.6657 83.4887C50.0324 83.4254 49.1458 83.4254 47.9426 83.4254L47.9426 103.729C48.0059 104.171 47.6892 104.551 47.2459 104.614C47.1826 104.614 47.1193 104.614 46.9926 104.614L34.9599 104.614C34.4533 104.614 34.2 104.361 34.2 103.792L34.2 103.792ZM48.0059 50.2192L48.0059 71.4712C48.8925 71.5344 49.7158 71.5977 50.4758 71.5977L53.8323 71.5977C56.3022 71.5977 58.772 71.2182 61.1152 70.4592C63.1418 69.8899 64.915 68.6882 66.3083 67.1069C67.6382 65.5257 68.2715 63.3752 68.2715 60.5922C68.3349 58.6314 67.8282 56.6707 66.8149 54.9629C65.7383 53.3184 64.2184 52.0534 62.3818 51.3577C60.0386 50.4089 57.5054 50.0294 54.9089 50.0927C53.2623 50.0927 51.8057 50.0927 50.6024 50.1559C49.3359 50.0927 48.4492 50.1559 48.0059 50.2192L48.0059 50.2192L48.0059 50.2192Z" id="Shape" fill="#DAD7CB" fill-rule="evenodd" stroke="none" />
      <path d="M121.6 67.612C119.7 66.6 117.673 65.9043 115.52 65.4616C113.177 64.9556 110.833 64.6394 108.427 64.6394C107.16 64.5761 105.83 64.7659 104.627 65.0821C103.803 65.2718 103.107 65.7145 102.663 66.347C102.347 66.853 102.157 67.4855 102.157 68.0547C102.157 68.624 102.41 69.1932 102.79 69.6992C103.36 70.3949 104.12 70.9641 104.943 71.4068C106.4 72.1659 107.92 72.8615 109.44 73.494C112.86 74.6325 116.153 76.2137 119.193 78.1111C121.283 79.4393 122.993 81.2103 124.197 83.3607C125.21 85.3847 125.717 87.5983 125.653 89.8752C125.717 92.8479 124.83 95.8206 123.183 98.2871C121.41 100.817 118.94 102.778 116.09 103.916C112.987 105.245 109.187 105.94 104.627 105.94C101.713 105.94 98.8631 105.687 96.0132 105.118C93.7965 104.739 91.5799 104.043 89.5529 103.094C89.1099 102.841 88.7933 102.398 88.8566 101.892L88.8566 90.8872C88.8566 90.6974 88.9197 90.4444 89.1099 90.318C89.2999 90.1915 89.4898 90.2547 89.6799 90.3812C92.1498 91.8359 94.7465 92.8479 97.5332 93.4804C99.9399 94.1129 102.473 94.4292 105.007 94.4292C107.413 94.4292 109.123 94.1129 110.263 93.5437C111.277 93.1009 111.973 92.0256 111.973 90.8872C111.973 90.0018 111.467 89.1795 110.453 88.3572C109.44 87.535 107.35 86.5864 104.247 85.3847C101.017 84.2462 98.0398 82.7282 95.2532 80.8308C93.2898 79.4393 91.6432 77.6052 90.44 75.4547C89.4265 73.4308 88.9197 71.2171 88.9833 69.0035C88.9833 66.2838 89.7432 63.6906 91.1365 61.3504C92.72 58.8206 95.0631 56.7966 97.7865 55.5317C100.763 54.0138 104.5 53.318 108.997 53.318C111.593 53.318 114.253 53.5078 116.85 53.8873C118.75 54.1403 120.587 54.6462 122.297 55.342C122.55 55.4052 122.803 55.6582 122.93 55.9111C122.993 56.1641 123.057 56.4171 123.057 56.6701L123.057 66.9795C123.057 67.2325 122.93 67.4856 122.74 67.612C122.17 67.7385 121.853 67.7385 121.6 67.612L121.6 67.612Z" id="Shape" fill="#DAD7CB" stroke="none" />
    </g>
  </g>
</svg>