<?xml version="1.0" encoding="utf-8"?>
<svg viewBox="0 0 261.27393 80.56201" version="1.1" xmlns:xlink="http://www.w3.org/1999/xlink" xmlns="http://www.w3.org/2000/svg">
  <defs>
    <path d="M261.274 0L261.274 0L261.274 80.562L0 80.562L0 0L261.274 0Z" id="path_1" />
    <clipPath id="clip_1">
      <use xlink:href="#path_1" clip-rule="evenodd" fill-rule="evenodd" />
    </clipPath>
  </defs>
  <g id="black_full_logo">
    <path d="M261.274 0L261.274 0L261.274 80.562L0 80.562L0 0L261.274 0Z" id="black_full_logo" fill="none" stroke="none" />
    <path d="M39.344 1L0 1L0 80.193L39.344 80.193C59.021 80.193 78.687 62.464 78.687 40.602C78.687 18.74 59.021 1 39.344 1L39.344 1Z" id="Shape-Path" fill="#C85656" stroke="none" clip-path="url(#clip_1)" />
    <path d="M39.344 58.433C29.4069 58.4292 21.3543 50.3705 21.358 40.4333C21.3617 30.4962 29.4202 22.4435 39.3574 22.447C49.2945 22.4505 57.3474 30.5089 57.344 40.446C57.344 45.2198 55.447 49.7969 52.0707 53.1703C48.6945 56.5438 44.1158 58.437 39.343 58.433L39.344 58.433Z" id="Shape-Path" fill="currentColor" stroke="none" clip-path="url(#clip_1)" />
    <path d="M169.51 80.562C163.219 80.562 158.988 77.562 158.988 72.286L158.988 71.574L165.166 71.574L165.166 72.1C165.166 74.309 166.589 75.657 169.547 75.657C172.206 75.657 173.966 74.571 173.966 72.549C174.07 71.4223 173.283 70.4078 172.166 70.228L165.613 68.58C161.531 67.569 159.434 65.772 159.434 61.503C159.434 56.298 163.141 53.303 169.357 53.303C175.236 53.303 178.981 56.485 178.981 61.278L178.981 61.915L173.03 61.915L173.03 61.466C173.03 59.705 172.056 58.245 169.36 58.245C167.113 58.245 165.691 59.031 165.691 60.903C165.605 61.9467 166.341 62.8792 167.376 63.038L174.34 64.91C178.534 66.033 180.219 68.355 180.219 71.987C180.219 77.229 175.576 80.562 169.51 80.562L169.51 80.562Z" id="Shape-Path" fill="#C85656" stroke="none" clip-path="url(#clip_1)" />
    <path d="M146.745 53.825L152.662 53.825L152.662 80.037L146.484 80.037L146.484 66.183L142.364 74.1949L137.272 74.1949L133.191 66.183L133.191 80.037L127.012 80.037L127.012 53.825L132.928 53.825L139.818 68.0919L146.745 53.825Z" id="Shape-Path" fill="#C85656" stroke="none" clip-path="url(#clip_1)" />
    <path d="M109.69 75.244C111.042 75.3532 112.377 74.8871 113.367 73.9603C114.357 73.0335 114.91 71.732 114.89 70.376L120.844 70.376C120.769 75.918 116.688 80.562 109.76 80.562C101.672 80.562 97.778 75.469 97.778 68.654L97.778 65.209C97.778 58.394 101.672 53.302 109.76 53.302C116.688 53.302 120.769 57.944 120.844 63.486L114.89 63.486C114.91 62.13 114.357 60.8286 113.367 59.9018C112.377 58.975 111.042 58.5088 109.69 58.618C105.795 58.618 104.222 61.202 104.222 64.909L104.222 68.953C104.222 72.66 105.8 75.244 109.69 75.244L109.69 75.244Z" id="Shape-Path" fill="#C85656" stroke="none" clip-path="url(#clip_1)" />
    <path d="M241.578 44.667C228.571 44.667 221.883 36.322 221.883 25.094L221.883 19.572C221.883 8.344 228.571 0 241.578 0C254.585 0 261.278 8.344 261.278 19.572L261.278 25.094C261.274 36.322 254.586 44.667 241.578 44.667L241.578 44.667Z" id="Shape-Path" fill="#C85656" stroke="none" clip-path="url(#clip_1)" />
    <path d="M241.578 8.77295C235.443 8.77295 232.436 12.8849 232.436 19.0199L232.436 25.6459C232.436 31.7819 235.443 35.8929 241.578 35.8929C247.713 35.8929 250.72 31.7819 250.72 25.6459L250.72 19.02C250.72 12.885 247.714 8.77295 241.578 8.77295L241.578 8.77295Z" id="Shape-Path" fill="currentColor" stroke="none" clip-path="url(#clip_1)" />
    <path d="M216.033 0.858032L216.033 9.75803L204.433 9.75803L204.433 43.808L193.883 43.808L193.883 9.75503L182.283 9.75503L182.283 0.858032L216.033 0.858032Z" id="Shape-Path" fill="#C85656" stroke="none" clip-path="url(#clip_1)" />
    <path d="M169.658 35.835L154.135 35.835L151.742 43.812L141.189 43.812L156.527 0.858032L167.327 0.858032L182.666 43.808L172.112 43.808L169.658 35.835Z" id="Shape-Path" fill="#C85656" stroke="none" clip-path="url(#clip_1)" />
    <path d="M156.712 27.368L167.081 27.368L161.927 10.373L156.712 27.368Z" id="Shape-Path" fill="currentColor" stroke="none" clip-path="url(#clip_1)" />
    <path d="M119.054 0.858032C130.896 0.858032 136.97 8.03703 136.97 17.916L136.97 26.751C136.97 36.629 130.896 43.808 119.054 43.808L100.279 43.808L100.279 0.858032L119.054 0.858032Z" id="Shape-Path" fill="#C85656" stroke="none" clip-path="url(#clip_1)" />
    <path d="M126.417 17.858C126.417 12.398 123.533 9.51404 117.152 9.51404L110.771 9.51404L110.771 35.156L117.152 35.156C123.533 35.156 126.417 32.272 126.417 26.812L126.417 17.858Z" id="Shape-Path" fill="currentColor" stroke="none" clip-path="url(#clip_1)" />
  </g>
</svg>