<?xml version="1.0" encoding="utf-8"?>
<svg viewBox="0 0 105 148" version="1.1" xmlns:xlink="http://www.w3.org/1999/xlink" xmlns="http://www.w3.org/2000/svg">
  <g id="layer1">
    <g id="g3013">
      <path d="M105 29.0855C105 29.0855 95.4342 136.096 95.4342 136.096C95.4342 136.096 52.4357 148 52.4357 148C52.4357 148 9.55564 136.113 9.55564 136.113C9.55564 136.113 0 29.0855 0 29.0855C0 29.0855 105 29.0855 105 29.0855Z" id="polygon2989" fill="#606EA9" fill-rule="evenodd" stroke="none" />
      <path d="M87.2449 129.282C87.2449 129.282 95.4195 37.8365 95.4195 37.8365C95.4195 37.8365 52.5 37.8365 52.5 37.8365C52.5 37.8365 52.5 138.901 52.5 138.901C52.5 138.901 87.2449 129.282 87.2449 129.282Z" id="polygon2991" fill="#57649A" fill-rule="evenodd" stroke="none" />
      <path d="M21.9062 77.5314C21.9062 77.5314 23.0843 90.6578 23.0843 90.6578C23.0843 90.6578 52.5001 90.6578 52.5001 90.6578C52.5001 90.6578 52.5001 77.5314 52.5001 77.5314C52.5001 77.5314 21.9062 77.5314 21.9062 77.5314Z" id="polygon2993" fill="#DAD7CB" fill-rule="evenodd" stroke="none" />
      <path d="M52.5 50.9632C52.5 50.9632 52.4545 50.9632 52.4545 50.9632C52.4545 50.9632 19.5388 50.9632 19.5388 50.9632C19.5388 50.9632 20.7337 64.0898 20.7337 64.0898C20.7337 64.0898 52.5 64.0898 52.5 64.0898C52.5 64.0898 52.5 50.9632 52.5 50.9632Z" id="polygon2995" fill="#DAD7CB" fill-rule="evenodd" stroke="none" />
      <path d="M52.5 125.279C52.5 125.279 52.5 111.622 52.5 111.622C52.5 111.622 52.4424 111.638 52.4424 111.638C52.4424 111.638 37.8029 107.69 37.8029 107.69C37.8029 107.69 36.867 97.2213 36.867 97.2213C36.867 97.2213 29.7533 97.2213 29.7533 97.2213C29.7533 97.2213 23.6716 97.2213 23.6716 97.2213C23.6716 97.2213 25.5132 117.832 25.5132 117.832C25.5132 117.832 52.4395 125.296 52.4395 125.296C52.4395 125.296 52.5 125.279 52.5 125.279Z" id="polygon2997" fill="#DAD7CB" fill-rule="evenodd" stroke="none" />
      <path d="M24.7111 0L40.6318 0L40.6318 6.64844L31.3688 6.64844L31.3688 13.2969L40.6318 13.2969L40.6318 19.9453L24.7111 19.9453L24.7111 0Z" id="path2999" fill="#C85656" stroke="none" />
      <path d="M43.816 0L59.7367 0L59.7367 5.78125L50.4737 5.78125L50.4737 6.9375L59.7367 6.9375L59.7367 20.2344L43.816 20.2344L43.816 14.1641L53.0789 14.1641L53.0789 13.0078L43.816 13.0078L43.816 0Z" id="path3001" fill="#DFB862" stroke="none" />
      <path d="M62.9208 0L78.8416 0L78.8416 5.78125L69.5786 5.78125L69.5786 6.9375L78.8416 6.9375L78.8416 20.2344L62.9208 20.2344L62.9208 14.1641L72.1838 14.1641L72.1838 13.0078L62.9208 13.0078L62.9208 0Z" id="path3003" fill="#7D9B53" stroke="none" />
      <path d="M68.641 90.6578C68.641 90.6578 67.1153 107.682 67.1153 107.682C67.1153 107.682 52.4546 111.633 52.4546 111.633C52.4546 111.633 52.4546 125.29 52.4546 125.29C52.4546 125.29 79.4023 117.832 79.4023 117.832C79.4023 117.832 79.6 115.614 79.6 115.614C79.6 115.614 82.6889 81.0563 82.6889 81.0563C82.6889 81.0563 83.0097 77.5315 83.0097 77.5315C83.0097 77.5315 85.3827 50.9632 85.3827 50.9632C85.3827 50.9632 52.4546 50.9632 52.4546 50.9632C52.4546 50.9632 52.4546 64.0898 52.4546 64.0898C52.4546 64.0898 70.9771 64.0898 70.9771 64.0898C70.9771 64.0898 69.781 77.5315 69.781 77.5315C69.781 77.5315 52.4546 77.5315 52.4546 77.5315C52.4546 77.5315 52.4546 90.6578 52.4546 90.6578C52.4546 90.6578 68.641 90.6578 68.641 90.6578Z" id="polygon3005" fill="#DAD7CB" fill-rule="evenodd" stroke="none" />
    </g>
  </g>
</svg>