<?xml version="1.0" encoding="utf-8"?>
<svg viewBox="0 0 131 196" version="1.1" xmlns:xlink="http://www.w3.org/1999/xlink" xmlns="http://www.w3.org/2000/svg">
  <defs>
    <path d="M131 0L131 0L131 196L0 196L0 0L131 0Z" id="path_1" />
    <clipPath id="clip_1">
      <use xlink:href="#path_1" clip-rule="evenodd" fill-rule="evenodd" />
    </clipPath>
  </defs>
  <g id="Figma-logo">
    <path d="M131 0L131 0L131 196L0 196L0 0L131 0Z" id="Figma-logo" fill="none" stroke="none" />
    <path d="M32.75 196C50.828 196 65.5 181.365 65.5 163.333L65.5 130.667L32.75 130.667C14.672 130.667 0 145.301 0 163.333C0 181.365 14.672 196 32.75 196L32.75 196Z" id="path0_fill" fill="#7D9B53" stroke="none" clip-path="url(#clip_1)" />
    <path d="M0 98C0 79.968 14.672 65.3333 32.75 65.3333L65.5 65.3333L65.5 130.667L32.75 130.667C14.672 130.667 0 116.032 0 98L0 98Z" id="path1_fill" fill="#9C7BB5" stroke="none" clip-path="url(#clip_1)" />
    <path d="M0 32.6667C0 14.6347 14.672 0 32.75 0L65.5 0L65.5 65.3333L32.75 65.3333C14.672 65.3333 0 50.6987 0 32.6667L0 32.6667Z" id="path1_fill_1_" fill="#C85656" stroke="none" clip-path="url(#clip_1)" />
    <path d="M65.5 0L98.25 0C116.328 0 131 14.6347 131 32.6667C131 50.6987 116.328 65.3333 98.25 65.3333L65.5 65.3333L65.5 0L65.5 0Z" id="path2_fill" fill="#D47373" stroke="none" clip-path="url(#clip_1)" />
    <path d="M131 98C131 116.032 116.328 130.667 98.25 130.667C80.172 130.667 65.5 116.032 65.5 98C65.5 79.968 80.172 65.3333 98.25 65.3333C116.328 65.3333 131 79.968 131 98L131 98Z" id="path3_fill" fill="#606EA9" stroke="none" clip-path="url(#clip_1)" />
  </g>
</svg>