<?xml version="1.0" encoding="utf-8"?>
<svg viewBox="0 0 394 80" version="1.1" xmlns:xlink="http://www.w3.org/1999/xlink" xmlns="http://www.w3.org/2000/svg">
  <defs>
    <path d="M394 0L394 0L394 80L0 80L0 0L394 0Z" id="path_1" />
    <clipPath id="clip_1">
      <use xlink:href="#path_1" clip-rule="evenodd" fill-rule="evenodd" />
    </clipPath>
  </defs>
  <g id="next">
    <path d="M394 0L394 0L394 80L0 80L0 0L394 0Z" id="next" fill="none" stroke="none" />
    <path d="M262.5 0L331 0L331 12.7L303.8 12.7L303.8 79.3L290.2 79.3L290.2 12.7L262.5 12.7L262.5 0L262.5 0Z" id="Shape-Path" fill="#7D9B53" stroke="none" clip-path="url(#clip_1)" />
    <path d="M183.8 0L166 0L229.8 79.4L247.7 79.4L215.7 39.7L247.7 0.100002L229.8 0.100002L206.8 28.7L183.8 0.100002L183.8 0Z" id="Shape-Path" fill="#DFB862" stroke="none" clip-path="url(#clip_1)" />
    <path d="M202.1 56.7L193.1 45.7L166 79.3999L183.8 79.3999L202.1 56.7L202.1 56.7Z" id="Shape-Path" fill="#DFB862" stroke="none" clip-path="url(#clip_1)" />
    <path d="M149.5 0L149.5 12.7L94.5 12.7L94.5 33.1L138.8 33.1L138.8 45.7L94.5 45.7L94.5 66.7L149.5 66.7L149.5 79.3L81 79.3L81 0L149.7 0L149.5 0Z" id="Shape-Path" fill="#C85656" stroke="none" clip-path="url(#clip_1)" />
    <path d="M81 79.3L17 0L0 0L0 79.3L13.6 79.3L13.6 17L63.8 79.3L81 79.3L81 79.3Z" id="Shape-Path" fill="#606EA9" stroke="none" clip-path="url(#clip_1)" />
    <path d="M333.6 78.9C332.6 78.9 331.8 78.5 331.1 77.9C330.4 77.3 330 76.3 330 75.3C330 74.3 330.3 73.5 331 72.8C331.7 72.1 332.6 71.8 333.6 71.8C334.6 71.8 335.4 72.1 336.1 72.8C337.308 73.9024 337.56 75.7089 336.7 77.1C336.065 78.1648 334.938 78.8406 333.7 78.9L333.6 78.9ZM356.8 45.4L362.8 45.4L362.8 68.7C362.8 70.8 362.4 72.7 361.5 74.2C360.598 75.7093 359.278 76.9249 357.7 77.7C356.1 78.5 354.2 79 352 79C350 79 348.3 78.6 346.7 78C345.1 77.4 343.9 76.2 343 74.8C342.1 73.5 341.6 71.8 341.6 69.8L347.6 69.8C347.7 70.6 347.9 71.4 348.3 72C348.7 72.6 349.3 73.2 349.9 73.5C350.6 73.9 351.4 74 352.3 74C353.3 74 354.1 73.8 354.7 73.4C355.406 72.9786 355.964 72.3501 356.3 71.6C356.6 70.8 356.8 69.8 356.8 68.6L356.8 45.5L356.8 45.4ZM387.7 54.5C387.577 53.1507 386.839 51.9334 385.7 51.2C384.41 50.4079 382.911 50.0244 381.4 50.1C380.1 50.1 379 50.3 378.1 50.6C377.2 51 376.5 51.6 376.1 52.2C375.17 53.3381 375.05 54.9359 375.8 56.2C376.1 56.7 376.5 57.1 377.1 57.4L378.9 58.4L380.9 58.9L384.1 59.7C385.4 60 386.6 60.4 387.8 60.9C388.947 61.3456 390.024 61.9516 391 62.7C392.955 64.2832 394.064 66.685 394 69.2C394 71.2 393.5 72.9 392.5 74.3C391.398 75.8634 389.871 77.0781 388.1 77.8C386.3 78.6 384 79 381.3 79C378.7 79 376.4 78.6 374.5 77.8C372.5 77 371.1 75.8 370 74.3C368.888 72.6446 368.296 70.6944 368.3 68.7L374.3 68.7C374.372 70.8207 375.776 72.6647 377.8 73.3C378.8 73.7 380 73.9 381.2 73.9C382.5 73.9 383.7 73.7 384.7 73.3C385.7 72.9 386.5 72.3 387.1 71.6C387.619 70.9076 387.9 70.0655 387.9 69.2C387.9 68.3 387.7 67.6 387.2 67C386.556 66.4543 385.851 65.9846 385.1 65.6L381.9 64.6L378.1 63.6C375.3 62.9 373.1 61.9 371.5 60.4C369.883 58.9579 369.002 56.8643 369.1 54.7C369.084 52.8889 369.684 51.1262 370.8 49.7C371.875 48.1513 373.366 46.938 375.1 46.2C377.1 45.4 379.1 45 381.5 45C383.8 45 385.9 45.4 387.7 46.2C389.5 47 390.9 48.2 392 49.6C393 51 393.5 52.6 393.5 54.6L387.7 54.6L387.7 54.5Z" id="Shape" fill="#9C7BB5" fill-rule="evenodd" stroke="none" clip-path="url(#clip_1)" />
  </g>
</svg>