<?xml version="1.0" encoding="utf-8"?>
<svg viewBox="0 0 512 63.478027" version="1.1" xmlns:xlink="http://www.w3.org/1999/xlink" xmlns="http://www.w3.org/2000/svg">
  <defs>
    <path d="M512 0L512 0L512 63.478L0 63.478L0 0L512 0Z" id="path_1" />
    <clipPath id="clip_1">
      <use xlink:href="#path_1" clip-rule="evenodd" fill-rule="evenodd" />
    </clipPath>
  </defs>
  <g id="Tailwind_CSS_logo">
    <path d="M512 0L512 0L512 63.478L0 63.478L0 0L512 0Z" id="Tailwind_CSS_logo" fill="none" stroke="none" />
    <path d="M392.66 4.11401L400.7 4.11401L400.7 56.23L392.66 56.23L392.66 50.87C389.83 54.815 385.438 57.198 379.631 57.198C369.506 57.198 361.093 48.636 361.093 37.618C361.093 26.525 369.506 18.038 379.631 18.038C385.438 18.038 389.831 20.42 392.66 24.291L392.66 4.11401Z" id="Shape-Path" fill="#DFB862" stroke="none" clip-path="url(#clip_1)" />
    <path d="M380.896 49.5299C387.596 49.5299 392.659 44.5409 392.659 37.6179C392.659 30.6949 387.596 25.7059 380.896 25.7059C374.196 25.7059 369.133 30.6939 369.133 37.6179C369.133 44.5419 374.195 49.5299 380.896 49.5299L380.896 49.5299Z" id="Shape-Path" fill="currentColor" stroke="none" clip-path="url(#clip_1)" />
    <path d="M340.246 18.035C348.585 18.035 354.541 23.694 354.541 33.372L354.541 56.228L346.501 56.228L346.501 34.192C346.501 28.534 343.224 25.556 338.161 25.556C332.876 25.556 328.707 28.683 328.707 36.276L328.707 56.23L320.667 56.23L320.667 19.004L328.707 19.004L328.707 23.769C331.164 19.898 335.184 18.036 340.247 18.036L340.246 18.035Z" id="Shape-Path" fill="#DFB862" stroke="none" clip-path="url(#clip_1)" />
    <path d="M303.32 56.228L303.32 19.004L311.36 19.004L311.36 56.23L303.32 56.228Z" id="Shape-Path" fill="#DFB862" stroke="none" clip-path="url(#clip_1)" />
    <path d="M307.34 13.42C304.51 13.42 302.203 11.037 302.203 8.28202C302.209 5.447 304.505 3.15041 307.34 3.14502C310.175 3.15053 312.472 5.44722 312.477 8.28202C312.477 11.037 310.169 13.42 307.34 13.42L307.34 13.42Z" id="Shape-Path" fill="#DFB862" stroke="none" clip-path="url(#clip_1)" />
    <path d="M288.876 19.0029L297.363 19.0029L285.675 56.2299L277.783 56.2299L270.04 31.1399L262.223 56.2299L254.332 56.2299L242.643 19.0049L251.13 19.0049L258.352 44.6899L266.169 19.0049L273.837 19.0049L281.58 44.6899L288.876 19.0029Z" id="Shape-Path" fill="#DFB862" stroke="none" clip-path="url(#clip_1)" />
    <path d="M228.646 56.228L228.646 1.88098L236.687 1.88098L236.687 56.229L228.646 56.228Z" id="Shape-Path" fill="#C85656" stroke="none" clip-path="url(#clip_1)" />
    <path d="M211.3 56.228L211.3 19.004L219.34 19.004L219.34 56.23L211.3 56.228Z" id="Shape-Path" fill="#C85656" stroke="none" clip-path="url(#clip_1)" />
    <path d="M215.32 13.42C212.49 13.42 210.183 11.037 210.183 8.28202C210.189 5.447 212.485 3.15041 215.32 3.14502C218.155 3.15053 220.452 5.44722 220.457 8.28202C220.457 11.037 218.149 13.42 215.32 13.42L215.32 13.42Z" id="Shape-Path" fill="#C85656" stroke="none" clip-path="url(#clip_1)" />
    <path d="M193.879 19.004L201.919 19.004L201.919 56.23L193.879 56.23L193.879 50.87C191.049 54.815 186.657 57.198 180.849 57.198C170.725 57.198 162.312 48.636 162.312 37.618C162.312 26.525 170.725 18.038 180.85 18.038C186.657 18.038 191.05 20.42 193.879 24.291L193.879 19.004Z" id="Shape-Path" fill="#C85656" stroke="none" clip-path="url(#clip_1)" />
    <path d="M182.115 49.5299C188.815 49.5299 193.879 44.5409 193.879 37.6179C193.879 30.6949 188.816 25.7059 182.115 25.7059C175.414 25.7059 170.352 30.6939 170.352 37.6179C170.352 44.5419 175.415 49.5299 182.115 49.5299L182.115 49.5299Z" id="Shape-Path" fill="currentColor" stroke="none" clip-path="url(#clip_1)" />
    <path d="M158.687 26.747L149.456 26.747L149.456 44.6149C149.456 49.3799 152.582 49.3049 158.687 49.0069L158.687 56.2289C146.329 57.7179 141.415 54.2929 141.415 44.6149L141.415 26.747L134.565 26.747L134.565 19.0039L141.415 19.0039L141.415 9.00395L149.455 6.62195L149.455 19.0039L158.687 19.0039L158.687 26.747Z" id="Shape-Path" fill="#C85656" stroke="none" clip-path="url(#clip_1)" />
    <path d="M491.975 29.279C491.975 36.054 512.002 31.959 512.002 45.733C512.002 53.178 505.525 57.198 497.484 57.198C490.039 57.198 484.679 53.848 482.296 48.488L489.22 44.467C490.411 47.817 493.39 49.827 497.484 49.827C501.058 49.827 503.812 48.637 503.812 45.658C503.812 39.032 483.785 42.755 483.785 29.428C483.785 22.43 489.815 18.038 497.41 18.038C503.514 18.038 508.577 20.866 511.183 25.78L504.408 29.577C503.068 26.674 500.462 25.333 497.41 25.333C494.506 25.333 491.975 26.599 491.975 29.279L491.975 29.279Z" id="Shape-Path" fill="#7D9B53" stroke="none" clip-path="url(#clip_1)" />
    <path d="M457.653 29.279C457.653 36.054 477.68 31.959 477.68 45.733C477.68 53.178 471.203 57.198 463.163 57.198C455.718 57.198 450.357 53.848 447.975 48.488L454.899 44.467C456.09 47.817 459.068 49.827 463.163 49.827C466.736 49.827 469.491 48.637 469.491 45.658C469.491 39.032 449.464 42.755 449.464 29.428C449.464 22.43 455.494 18.038 463.088 18.038C469.193 18.038 474.256 20.866 476.861 25.78L470.087 29.577C468.747 26.674 466.141 25.333 463.088 25.333C460.185 25.333 457.653 26.599 457.653 29.279L457.653 29.279Z" id="Shape-Path" fill="#7D9B53" stroke="none" clip-path="url(#clip_1)" />
    <path d="M427.65 57.198C416.408 57.198 407.996 48.636 407.996 37.618C407.996 26.525 416.408 18.038 427.65 18.038C434.946 18.038 441.275 21.834 444.253 27.641L437.329 31.661C435.691 28.163 432.043 25.929 427.576 25.929C421.024 25.929 416.036 30.917 416.036 37.618C416.036 44.319 421.024 49.306 427.576 49.306C432.043 49.306 435.691 46.998 437.478 43.574L444.401 47.519C441.275 53.401 434.946 57.198 427.651 57.198L427.65 57.198Z" id="Shape-Path" fill="#7D9B53" stroke="none" clip-path="url(#clip_1)" />
    <path d="M26.45 31.739C12.344 31.739 3.528 38.792 0.00100136 52.899C5.291 45.845 11.462 43.2 18.515 44.964C22.54 45.971 25.415 48.89 28.599 52.121C33.785 57.385 39.789 63.478 52.899 63.478C67.006 63.478 75.822 56.425 79.349 42.318C74.059 49.372 67.887 52.017 60.834 50.253C56.81 49.248 53.934 46.327 50.75 43.097C45.564 37.832 39.561 31.739 26.45 31.739L26.45 31.739Z" id="Shape-Path" fill="#9C7BB5" stroke="none" clip-path="url(#clip_1)" />
    <path d="M52.898 0C38.792 0 29.976 7.053 26.45 21.16C31.74 14.106 37.912 11.461 44.965 13.225C48.989 14.23 51.865 17.151 55.049 20.382C60.235 25.646 66.238 31.739 79.349 31.739C93.455 31.739 102.271 24.686 105.798 10.579C100.508 17.633 94.336 20.278 87.283 18.514C83.259 17.509 80.383 14.588 77.199 11.357C72.012 6.093 66.01 0 52.898 0L52.898 0Z" id="Shape-Path" fill="#606EA9" stroke="none" clip-path="url(#clip_1)" />
  </g>
</svg>