<svg viewBox="0 0 112 112" fill="none" xmlns="http://www.w3.org/2000/svg">
<g clip-path="url(#clip0_38_2)">
<path d="M84 32.9C84 31.6623 84 28.5 84 28.2333C84 28.2333 80.571 28.2333 79.3333 28.2333L42 28C40.7623 28 39.5753 28.4917 38.7002 29.3668C37.825 30.242 37.3333 31.429 37.3333 32.6667C37.3333 33.9043 37.3333 36.2988 37.3333 37.3333C38.1879 37.3333 40.7623 37.3333 42 37.3333H67.9467L29.3533 76.02C28.9159 76.4538 28.5688 76.97 28.3318 77.5386C28.0949 78.1073 27.9729 78.7173 27.9729 79.3333C27.9729 79.9494 28.0949 80.5593 28.3318 81.128C28.5688 81.6967 28.9159 82.2128 29.3533 82.6467C29.7872 83.0841 30.3033 83.4312 30.872 83.6682C31.4406 83.9051 32.0506 84.0271 32.6667 84.0271C33.2827 84.0271 33.8927 83.9051 34.4613 83.6682C35.03 83.4312 35.5462 83.0841 35.98 82.6467L74.6667 43.96V70C74.6667 71.2377 74.6667 73.5 74.6667 74.6667C76 74.6667 78.0956 74.6667 79.3333 74.6667C80.571 74.6667 81.758 74.175 82.6332 73.2998C83.5083 72.4247 84 71.2377 84 70V32.9Z" fill="currentColor"/>
</g>
<defs>
<clipPath id="clip0_38_2">
<rect width="112" height="112"/>
</clipPath>
</defs>
</svg>
