<?xml version="1.0" encoding="utf-8"?>
<svg viewBox="0 0 366 160" version="1.1" xmlns:xlink="http://www.w3.org/1999/xlink" xmlns="http://www.w3.org/2000/svg">
  <g id="Group">
    <path d="M4.14585 95.7098C3.37318 95.7491 2.75558 96.3662 2.71625 97.1383L0 117.595L2.67336 137.708C2.71743 138.492 3.35354 139.112 4.1387 139.136C4.90712 139.088 5.51948 138.476 5.56831 137.708L5.56831 137.708L8.74203 117.587L5.5969 97.1383C5.54807 96.3705 4.93571 95.7586 4.16729 95.7098L4.14585 95.7098Z" id="Shape" fill="currentColor" stroke="none" />
    <path d="M19.1924 84.5105C19.1924 83.6703 18.5107 82.9891 17.6698 82.9891C16.829 82.9891 16.1473 83.6703 16.1473 84.5105L12.5733 117.595L16.1473 149.95C16.1473 150.791 16.829 151.472 17.6698 151.472C18.5107 151.472 19.1924 150.791 19.1924 149.95L23.2882 117.588L19.1924 84.5033L19.1924 84.5105Z" id="Shape" fill="currentColor" stroke="none" />
    <path d="M75.8906 53.9905C74.3832 54.0387 73.1725 55.2485 73.1243 56.7547L70.2651 117.623L73.1243 156.965C73.1993 158.439 74.4171 159.595 75.8942 159.595C77.3712 159.595 78.5891 158.439 78.664 156.965L78.664 156.965L81.9021 117.623L78.664 56.7547C78.6156 55.2458 77.4007 54.035 75.8906 53.9905L75.8906 53.9905Z" id="Shape" fill="currentColor" stroke="none" />
    <path d="M46.5479 75.1465C45.3778 75.1801 44.4371 76.12 44.4035 77.2892L41.1726 117.609L44.3964 156.629C44.3964 157.812 45.3565 158.771 46.5408 158.771C47.7251 158.771 48.6852 157.812 48.6852 156.629L52.3521 117.609L48.6852 77.2678C48.6373 76.1111 47.7058 75.1866 46.5479 75.1465L46.5479 75.1465Z" id="Shape" fill="currentColor" stroke="none" />
    <path d="M105.705 159.707C107.565 159.677 109.066 158.18 109.1 156.322L111.909 117.645L109.1 36.6056C109.1 34.7319 107.58 33.2129 105.705 33.2129C103.83 33.2129 102.31 34.7319 102.31 36.6056L99.8149 117.638L102.31 156.329C102.34 158.187 103.845 159.684 105.705 159.707L105.705 159.707Z" id="Shape" fill="currentColor" stroke="none" />
    <path d="M166.749 159.886C169.304 159.847 171.364 157.783 171.395 155.229L171.395 155.229L173.354 117.659L171.395 24.0919C171.395 21.5278 169.315 19.4492 166.749 19.4492C164.183 19.4492 162.103 21.5278 162.103 24.0919L160.351 117.659C160.351 117.716 162.103 155.279 162.103 155.279C162.156 157.815 164.211 159.852 166.749 159.886L166.749 159.886Z" id="Shape" fill="currentColor" stroke="none" />
    <path d="M135.998 159.743C138.214 159.723 140.004 157.929 140.015 155.715L140.015 155.715L142.403 117.623L140.015 35.9985C140.078 34.5227 139.325 33.1315 138.056 32.3751C136.786 31.6186 135.203 31.6186 133.934 32.3751C132.664 33.1316 131.912 34.5227 131.974 35.9985L129.829 117.631L131.974 155.715C131.997 157.922 133.789 159.703 135.998 159.714L135.998 159.743Z" id="Shape" fill="currentColor" stroke="none" />
    <path d="M61.1585 159.386C62.4942 159.353 63.5724 158.285 63.6174 156.95L67.0699 117.602L63.6174 80.175C63.6161 78.8188 62.5156 77.7201 61.1584 77.7201C59.8013 77.7202 58.7007 78.8189 58.6996 80.175L55.6545 117.588L58.6996 156.929C58.7225 158.276 59.8101 159.363 61.1585 159.386L61.1585 159.386Z" id="Shape" fill="currentColor" stroke="none" />
    <path d="M32.0516 157.229C33.0375 157.193 33.8339 156.413 33.8887 155.429L37.77 117.573L33.8958 78.2894C33.8953 77.2758 33.0729 76.4545 32.0587 76.4545C31.0445 76.4546 30.2221 77.2759 30.2217 78.2894L26.805 117.573L30.2217 155.429C30.2556 156.421 31.0586 157.214 32.0516 157.236L32.0516 157.229Z" id="Shape" fill="currentColor" stroke="none" />
    <path d="M151.316 34.6627C148.919 34.6745 146.981 36.6174 146.978 39.0125L145.04 117.659L146.978 155.514C147.072 157.839 148.985 159.674 151.313 159.674C153.641 159.674 155.554 157.839 155.648 155.514L155.648 155.514L157.792 117.659L155.648 38.9982C155.636 36.6114 153.705 34.6783 151.316 34.6627L151.316 34.6627Z" id="Shape" fill="currentColor" stroke="none" />
    <path d="M90.7798 159.786C92.4627 159.748 93.819 158.396 93.8606 156.714L96.8842 117.637L93.8249 42.8551C93.7456 41.2106 92.3882 39.918 90.7405 39.918C89.0928 39.918 87.7354 41.2106 87.6561 42.8551L84.9828 117.637L87.6633 156.729C87.702 158.423 89.0838 159.778 90.7798 159.786L90.7798 159.786Z" id="Shape" fill="currentColor" stroke="none" />
    <path d="M124.497 156.093L124.497 156.093L127.092 117.666L124.497 33.8984C124.557 32.5365 123.864 31.2517 122.692 30.5529C121.521 29.854 120.06 29.854 118.889 30.5529C117.718 31.2517 117.025 32.5365 117.085 33.8984L114.776 117.666L117.085 156.114C117.085 158.158 118.742 159.814 120.787 159.814C122.832 159.814 124.49 158.158 124.49 156.114L124.49 156.114L124.497 156.093Z" id="Shape" fill="currentColor" stroke="none" />
    <path d="M320.946 69.354C314.973 69.3457 309.059 70.5359 303.555 72.8539C299.981 32.0129 265.949 0 224.455 0C214.606 0.0182988 204.845 1.85375 195.663 5.41405C192.267 6.73542 191.374 8.09964 191.331 10.7424L191.331 154.565C191.371 157.318 193.453 159.613 196.192 159.921C196.306 159.921 320.167 160 320.967 160C345.828 160 366 139.708 366 114.681C366 89.6531 345.843 69.354 320.967 69.354L320.946 69.354Z" id="Shape" fill="currentColor" stroke="none" />
    <path d="M182.124 10.6211C179.378 10.6446 177.163 12.8762 177.164 15.6209L175.126 117.673L177.164 154.722C177.103 156.536 178.04 158.239 179.606 159.16C181.172 160.08 183.116 160.072 184.674 159.138C186.232 158.203 187.154 156.493 187.078 154.679L187.078 154.722L189.287 117.673L187.078 15.5852C187.059 12.8572 184.854 10.6483 182.124 10.6211L182.124 10.6211Z" id="Shape" fill="currentColor" stroke="none" />
  </g>
</svg>