<?xml version="1.0" encoding="utf-8"?>
<svg viewBox="0 0 160 160" version="1.1" xmlns:xlink="http://www.w3.org/1999/xlink" xmlns="http://www.w3.org/2000/svg">
  <path d="M0 79.7612C0 123.702 36.1905 160 80 160C123.81 160 160 123.702 160 79.7612C160 35.8209 123.81 0 80 0C36.1905 0 0 35.8209 0 79.7612L0 79.7612ZM109.524 117.015C90.9524 105.552 67.1429 102.687 39.5238 108.896C32.8571 109.851 31.9048 100.298 37.619 99.3433C68.0952 92.1791 93.8095 95.5223 114.762 108.418C120 111.761 114.762 119.881 109.524 117.015L109.524 117.015ZM117.619 95.5223C96.1905 82.1493 63.3333 78.3284 38.0952 85.9701C30 88.3582 27.1429 75.9403 34.7619 74.0298C63.8095 65.4329 99.5238 69.7313 124.286 85.0149C130.952 89.3135 124.286 99.8209 117.619 95.5223L117.619 95.5223ZM34.2857 61.6119C26.1905 64.4777 20.9524 50.6268 30 47.2836C58.0952 38.6865 105.714 40.1194 135.238 57.791C143.333 62.0896 135.714 75.4626 127.143 70.6865C101.429 55.403 58.5714 53.9702 34.2857 61.6119L34.2857 61.6119Z" id="Shape" fill="currentColor" fill-rule="evenodd" stroke="none" />
</svg>